<svg width="55" height="16" viewBox="0 0 55 16" fill="none" xmlns="http://www.w3.org/2000/svg">
<g clip-path="url(#clip0_328_522)">
<path d="M40.9474 15.9663C42.252 15.7542 43.138 14.5235 42.9262 13.2173C42.7144 11.9112 41.4851 11.0242 40.1805 11.2362C38.8759 11.4482 37.9899 12.679 38.2017 13.9851C38.4135 15.2913 39.6427 16.1783 40.9474 15.9663Z" fill="white" stroke="white" stroke-width="10"/>
<path d="M40.564 0.12207C40.3929 0.12207 40.2218 0.12721 40.0507 0.134063H35.9668C35.9668 0.134063 37.3786 0.506694 38.1683 4.24585C39.7913 3.83049 41.4943 3.84524 43.1098 4.28865C44.7254 4.73205 46.1978 5.58884 47.3823 6.77474C48.5669 7.96064 49.4226 9.43481 49.8655 11.0523C50.3084 12.6697 50.3231 14.3747 49.9083 15.9996H53.8176C54.1659 14.0577 54.0846 12.0631 53.5795 10.1561C53.0744 8.2491 52.1577 6.47623 50.894 4.96239C49.6303 3.44854 48.0505 2.23056 46.2657 1.39426C44.4809 0.557963 42.5346 0.1237 40.564 0.12207V0.12207Z" fill="white"/>
<path d="M40.5641 5.97937C39.75 5.97901 38.9411 6.10945 38.1683 6.36571V9.60974C39.0582 9.07601 40.1006 8.85524 41.1301 8.98247C42.1596 9.10971 43.1172 9.57766 43.8507 10.312C44.5842 11.0464 45.0516 12.005 45.1786 13.0357C45.3057 14.0664 45.0852 15.1101 44.5521 16.001H47.7915C48.1708 14.8552 48.273 13.6357 48.0895 12.4426C47.9061 11.2496 47.4424 10.1173 46.7365 9.13871C46.0306 8.16017 45.1027 7.36341 44.0292 6.81401C42.9556 6.26461 41.7672 5.97825 40.5615 5.97852L40.5641 5.97937Z" fill="white"/>
<path d="M12.3645 7.15697C11.9957 6.74191 11.5164 6.44062 10.9827 6.28836C10.4123 6.11703 9.73292 6.03137 8.9446 6.03137H4.50222C4.36245 6.03682 4.22399 6.00254 4.10286 5.9325C3.98173 5.86247 3.88288 5.75954 3.81773 5.63561C3.67256 5.39684 3.5937 5.12359 3.58928 4.84409C3.5864 4.57027 3.66021 4.30111 3.80233 4.06714C3.94436 3.83413 4.17766 3.71735 4.50222 3.71678H12.4715C12.6745 3.71678 12.7758 3.61541 12.7752 3.41268V0.304849C12.7752 0.101544 12.674 -0.000108733 12.4715 -0.000108733H5.90116C5.01058 -0.00922618 4.1207 0.0535105 3.24018 0.187492C2.49865 0.309132 1.89001 0.542419 1.41429 0.887352C0.938565 1.23229 0.583768 1.71828 0.349898 2.34532C0.117169 2.97351 0.000519769 3.79559 -5.06444e-05 4.81154C-0.00575049 5.45228 0.0657828 6.09137 0.212999 6.71496C0.337432 7.2518 0.566243 7.75886 0.886372 8.20719C1.20006 8.63111 1.61764 8.96687 2.09879 9.18203C2.60531 9.41503 3.22393 9.53153 3.95463 9.53153H8.72984C9.13541 9.53153 9.40407 9.66374 9.53584 9.92815C9.66353 10.1741 9.73126 10.4468 9.73349 10.724C9.73239 10.8817 9.72239 11.0393 9.70354 11.196C9.68373 11.3644 9.62516 11.526 9.53242 11.668C9.43663 11.8144 9.30611 11.9347 9.15252 12.0183C8.94447 12.1194 8.7144 12.1665 8.48343 12.1554H0.390112C0.186475 12.1554 0.0855114 12.2573 0.0855114 12.4595V15.5656C0.0855114 15.7695 0.186475 15.8705 0.390112 15.8705H10.0689C10.7579 15.8705 11.3204 15.6992 11.7562 15.3566C12.184 15.0229 12.5334 14.5991 12.7795 14.1153C13.0173 13.655 13.1865 13.1624 13.2817 12.6531C13.362 12.258 13.4078 11.8568 13.4186 11.4538C13.4186 10.3984 13.3331 9.5204 13.162 8.81968C12.9908 8.11896 12.725 7.56473 12.3645 7.15697Z" fill="white"/>
<path d="M19.1625 0H16.0608C15.8926 0 15.7562 0.136534 15.7562 0.304958V15.5614C15.7562 15.7298 15.8926 15.8664 16.0608 15.8664H19.1625C19.3307 15.8664 19.4671 15.7298 19.4671 15.5614V0.304958C19.4671 0.136534 19.3307 0 19.1625 0Z" fill="white"/>
<path d="M35.7102 11.8265V5.51237C35.7097 4.85614 35.6333 4.20218 35.4826 3.56355C35.3405 2.93779 35.0937 2.34058 34.7527 1.79719C34.4206 1.27184 33.9731 0.829178 33.4445 0.502838C32.9072 0.167613 32.2532 0 31.4826 0H22.9041C22.701 0 22.5995 0.101653 22.5995 0.304958V3.41107C22.5995 3.61438 22.701 3.71574 22.9041 3.71517H30.9042C31.0613 3.71393 31.2163 3.75256 31.3545 3.82746C31.4928 3.90235 31.6098 4.01107 31.6948 4.14348C31.8846 4.38936 31.9913 4.68941 31.9994 5.00011C31.9994 5.34276 31.8411 5.64514 31.5271 5.8987C31.213 6.15226 30.7921 6.2799 30.265 6.2799H25.1861C24.6247 6.26313 24.0754 6.44513 23.6348 6.79387C23.2078 7.14031 22.8559 7.57023 22.6004 8.05739C22.3316 8.5697 22.1371 9.11773 22.0228 9.68498C21.9078 10.2154 21.8468 10.7561 21.8406 11.2989C21.8527 11.6871 21.8933 12.0739 21.9621 12.4562C22.0472 12.9796 22.1949 13.491 22.4019 13.9792C22.6098 14.477 22.9167 14.9273 23.3037 15.3027C23.6859 15.6768 24.1813 15.8638 24.7899 15.8638H36.7566C36.7566 15.8638 35.8154 15.4432 35.7102 11.8265ZM32.0002 11.9979C32.0002 12.2012 31.8987 12.3028 31.6956 12.3028H26.4626C26.2993 12.3105 26.1365 12.2785 25.9882 12.2094C25.8399 12.1403 25.7106 12.0363 25.6113 11.9062C25.4096 11.6451 25.3025 11.3231 25.3076 10.993C25.3069 10.7104 25.4032 10.4361 25.5805 10.2161C25.6609 10.1062 25.7664 10.017 25.8881 9.95611C26.0098 9.89517 26.1443 9.86419 26.2804 9.86572H31.6948C31.8978 9.86572 31.9994 9.96738 31.9994 10.1707L32.0002 11.9979Z" fill="white"/>
</g>
<defs>
<clipPath id="clip0_328_522">
<rect width="54.0299" height="16" fill="white"/>
</clipPath>
</defs>
</svg>
