<svg width="258" height="194" viewBox="0 0 258 194" fill="none" xmlns="http://www.w3.org/2000/svg">
<rect x="1" y="1" width="256" height="192" rx="32" fill="#161618" stroke="#34343A" stroke-width="2"/>
<path d="M65 69C65 57.9543 73.9543 49 85 49H257V161C257 178.673 242.673 193 225 193H65V69Z" fill="#232326" stroke="#34343A" stroke-width="2"/>
<path d="M101.224 97C101.011 97 100.872 96.8933 100.808 96.68L99.752 93.256C99.7093 93.1707 99.656 93.128 99.592 93.128H91.144C91.08 93.128 91.0267 93.1707 90.984 93.256L89.928 96.68C89.864 96.8933 89.7253 97 89.512 97H86.312C86.184 97 86.088 96.968 86.024 96.904C85.96 96.8187 85.9493 96.7013 85.992 96.552L92.936 74.92C93 74.7067 93.1387 74.6 93.352 74.6H97.352C97.5653 74.6 97.704 74.7067 97.768 74.92L104.744 96.552C104.765 96.5947 104.776 96.648 104.776 96.712C104.776 96.904 104.659 97 104.424 97H101.224ZM91.976 90.024C91.9547 90.152 91.9973 90.216 92.104 90.216H98.6C98.728 90.216 98.7707 90.152 98.728 90.024L95.432 79.304C95.4107 79.2187 95.3787 79.176 95.336 79.176C95.2933 79.176 95.2613 79.2187 95.24 79.304L91.976 90.024ZM113.974 80.392C115.318 80.392 116.502 80.6267 117.526 81.096C118.55 81.5653 119.339 82.216 119.894 83.048C120.449 83.8587 120.726 84.7867 120.726 85.832V96.616C120.726 96.7227 120.683 96.8187 120.598 96.904C120.534 96.968 120.449 97 120.342 97H117.398C117.291 97 117.195 96.968 117.11 96.904C117.046 96.8187 117.014 96.7227 117.014 96.616V95.592C117.014 95.528 116.993 95.496 116.95 95.496C116.907 95.4747 116.865 95.4853 116.822 95.528C115.777 96.68 114.262 97.256 112.278 97.256C110.678 97.256 109.355 96.8507 108.31 96.04C107.286 95.2293 106.774 94.024 106.774 92.424C106.774 90.76 107.35 89.4693 108.502 88.552C109.675 87.6133 111.318 87.144 113.43 87.144H116.854C116.961 87.144 117.014 87.0907 117.014 86.984V86.216C117.014 85.384 116.769 84.744 116.278 84.296C115.787 83.8267 115.051 83.592 114.07 83.592C113.259 83.592 112.598 83.7413 112.086 84.04C111.595 84.3173 111.286 84.712 111.158 85.224C111.094 85.48 110.945 85.5867 110.71 85.544L107.606 85.16C107.499 85.1387 107.403 85.1067 107.318 85.064C107.254 85 107.233 84.9253 107.254 84.84C107.425 83.5387 108.118 82.472 109.334 81.64C110.571 80.808 112.118 80.392 113.974 80.392ZM113.206 94.312C114.251 94.312 115.147 94.0347 115.894 93.48C116.641 92.9253 117.014 92.2213 117.014 91.368V89.864C117.014 89.7573 116.961 89.704 116.854 89.704H114.166C113.035 89.704 112.139 89.9173 111.478 90.344C110.838 90.7707 110.518 91.3787 110.518 92.168C110.518 92.8507 110.763 93.384 111.254 93.768C111.766 94.1307 112.417 94.312 113.206 94.312Z" fill="#EDEDEF"/>
</svg>
