<svg width="258" height="194" viewBox="0 0 258 194" fill="none" xmlns="http://www.w3.org/2000/svg">
<path d="M129 1H225C242.673 1 257 15.3269 257 33V161C257 178.673 242.673 193 225 193H129V1Z" fill="#F9F8F9" stroke="#E4E2E4" stroke-width="2"/>
<path d="M1 33C1 15.3269 15.3269 1 33 1H129V193H33C15.3269 193 1 178.673 1 161V33Z" fill="#161618" stroke="#34343A" stroke-width="2"/>
<path d="M161 69C161 57.9543 169.954 49 181 49H257V161C257 178.673 242.673 193 225 193H161V69Z" fill="white" stroke="#E4E2E4" stroke-width="2"/>
<path d="M33 69C33 57.9543 41.9543 49 53 49H129V193H33V69Z" fill="#232326" stroke="#34343A" stroke-width="2"/>
<path d="M197.224 97C197.011 97 196.872 96.8933 196.808 96.68L195.752 93.256C195.709 93.1707 195.656 93.128 195.592 93.128H187.144C187.08 93.128 187.027 93.1707 186.984 93.256L185.928 96.68C185.864 96.8933 185.725 97 185.512 97H182.312C182.184 97 182.088 96.968 182.024 96.904C181.96 96.8187 181.949 96.7013 181.992 96.552L188.936 74.92C189 74.7067 189.139 74.6 189.352 74.6H193.352C193.565 74.6 193.704 74.7067 193.768 74.92L200.744 96.552C200.765 96.5947 200.776 96.648 200.776 96.712C200.776 96.904 200.659 97 200.424 97H197.224ZM187.976 90.024C187.955 90.152 187.997 90.216 188.104 90.216H194.6C194.728 90.216 194.771 90.152 194.728 90.024L191.432 79.304C191.411 79.2187 191.379 79.176 191.336 79.176C191.293 79.176 191.261 79.2187 191.24 79.304L187.976 90.024ZM209.974 80.392C211.318 80.392 212.502 80.6267 213.526 81.096C214.55 81.5653 215.339 82.216 215.894 83.048C216.449 83.8587 216.726 84.7867 216.726 85.832V96.616C216.726 96.7227 216.683 96.8187 216.598 96.904C216.534 96.968 216.449 97 216.342 97H213.398C213.291 97 213.195 96.968 213.11 96.904C213.046 96.8187 213.014 96.7227 213.014 96.616V95.592C213.014 95.528 212.993 95.496 212.95 95.496C212.907 95.4747 212.865 95.4853 212.822 95.528C211.777 96.68 210.262 97.256 208.278 97.256C206.678 97.256 205.355 96.8507 204.31 96.04C203.286 95.2293 202.774 94.024 202.774 92.424C202.774 90.76 203.35 89.4693 204.502 88.552C205.675 87.6133 207.318 87.144 209.43 87.144H212.854C212.961 87.144 213.014 87.0907 213.014 86.984V86.216C213.014 85.384 212.769 84.744 212.278 84.296C211.787 83.8267 211.051 83.592 210.07 83.592C209.259 83.592 208.598 83.7413 208.086 84.04C207.595 84.3173 207.286 84.712 207.158 85.224C207.094 85.48 206.945 85.5867 206.71 85.544L203.606 85.16C203.499 85.1387 203.403 85.1067 203.318 85.064C203.254 85 203.233 84.9253 203.254 84.84C203.425 83.5387 204.118 82.472 205.334 81.64C206.571 80.808 208.118 80.392 209.974 80.392ZM209.206 94.312C210.251 94.312 211.147 94.0347 211.894 93.48C212.641 92.9253 213.014 92.2213 213.014 91.368V89.864C213.014 89.7573 212.961 89.704 212.854 89.704H210.166C209.035 89.704 208.139 89.9173 207.478 90.344C206.838 90.7707 206.518 91.3787 206.518 92.168C206.518 92.8507 206.763 93.384 207.254 93.768C207.766 94.1307 208.417 94.312 209.206 94.312Z" fill="#1A1523"/>
<path d="M69.224 97C69.0107 97 68.872 96.8933 68.808 96.68L67.752 93.256C67.7093 93.1707 67.656 93.128 67.592 93.128H59.144C59.08 93.128 59.0267 93.1707 58.984 93.256L57.928 96.68C57.864 96.8933 57.7253 97 57.512 97H54.312C54.184 97 54.088 96.968 54.024 96.904C53.96 96.8187 53.9493 96.7013 53.992 96.552L60.936 74.92C61 74.7067 61.1387 74.6 61.352 74.6H65.352C65.5653 74.6 65.704 74.7067 65.768 74.92L72.744 96.552C72.7653 96.5947 72.776 96.648 72.776 96.712C72.776 96.904 72.6587 97 72.424 97H69.224ZM59.976 90.024C59.9547 90.152 59.9973 90.216 60.104 90.216H66.6C66.728 90.216 66.7707 90.152 66.728 90.024L63.432 79.304C63.4107 79.2187 63.3787 79.176 63.336 79.176C63.2933 79.176 63.2613 79.2187 63.24 79.304L59.976 90.024ZM81.974 80.392C83.318 80.392 84.502 80.6267 85.526 81.096C86.55 81.5653 87.3393 82.216 87.894 83.048C88.4487 83.8587 88.726 84.7867 88.726 85.832V96.616C88.726 96.7227 88.6833 96.8187 88.598 96.904C88.534 96.968 88.4487 97 88.342 97H85.398C85.2913 97 85.1953 96.968 85.11 96.904C85.046 96.8187 85.014 96.7227 85.014 96.616V95.592C85.014 95.528 84.9927 95.496 84.95 95.496C84.9073 95.4747 84.8647 95.4853 84.822 95.528C83.7767 96.68 82.262 97.256 80.278 97.256C78.678 97.256 77.3553 96.8507 76.31 96.04C75.286 95.2293 74.774 94.024 74.774 92.424C74.774 90.76 75.35 89.4693 76.502 88.552C77.6753 87.6133 79.318 87.144 81.43 87.144H84.854C84.9607 87.144 85.014 87.0907 85.014 86.984V86.216C85.014 85.384 84.7687 84.744 84.278 84.296C83.7873 83.8267 83.0513 83.592 82.07 83.592C81.2593 83.592 80.598 83.7413 80.086 84.04C79.5953 84.3173 79.286 84.712 79.158 85.224C79.094 85.48 78.9447 85.5867 78.71 85.544L75.606 85.16C75.4993 85.1387 75.4033 85.1067 75.318 85.064C75.254 85 75.2327 84.9253 75.254 84.84C75.4247 83.5387 76.118 82.472 77.334 81.64C78.5713 80.808 80.118 80.392 81.974 80.392ZM81.206 94.312C82.2513 94.312 83.1473 94.0347 83.894 93.48C84.6407 92.9253 85.014 92.2213 85.014 91.368V89.864C85.014 89.7573 84.9607 89.704 84.854 89.704H82.166C81.0353 89.704 80.1393 89.9173 79.478 90.344C78.838 90.7707 78.518 91.3787 78.518 92.168C78.518 92.8507 78.7633 93.384 79.254 93.768C79.766 94.1307 80.4167 94.312 81.206 94.312Z" fill="#EDEDEF"/>
</svg>
